<mxfile host="app.diagrams.net" modified="2024-02-09T15:02:29.811Z" agent="Mozilla/5.0 (Macintosh; Intel Mac OS X 10_15_7) AppleWebKit/537.36 (KHTML, like Gecko) Chrome/121.0.0.0 Safari/537.36" etag="msgVjNJbV8iEyAZkTkGB" version="23.1.2" type="device">
  <diagram name="Page-1" id="cqSqE1tHcTmSxrjyPDiP">
    <mxGraphModel dx="1065" dy="724" grid="1" gridSize="10" guides="1" tooltips="1" connect="1" arrows="1" fold="1" page="1" pageScale="1" pageWidth="850" pageHeight="1100" math="0" shadow="0">
      <root>
        <mxCell id="0" />
        <mxCell id="1" parent="0" />
        <mxCell id="GgQkkhOfwbv0QkeX5gfG-17" value="" style="rounded=0;whiteSpace=wrap;html=1;fillColor=none;dashed=1;strokeWidth=2;strokeColor=#FF0080;" vertex="1" parent="1">
          <mxGeometry x="130" y="100" width="565" height="330" as="geometry" />
        </mxCell>
        <mxCell id="GgQkkhOfwbv0QkeX5gfG-11" value="" style="rounded=0;whiteSpace=wrap;html=1;fillColor=none;strokeColor=#000000;" vertex="1" parent="1">
          <mxGeometry x="80" y="70" width="660" height="400" as="geometry" />
        </mxCell>
        <mxCell id="GgQkkhOfwbv0QkeX5gfG-13" value="" style="rounded=0;whiteSpace=wrap;html=1;fillColor=none;strokeColor=#FF8000;strokeWidth=2;dashed=1;" vertex="1" parent="1">
          <mxGeometry x="145" y="120" width="140" height="80" as="geometry" />
        </mxCell>
        <mxCell id="GgQkkhOfwbv0QkeX5gfG-5" style="edgeStyle=orthogonalEdgeStyle;rounded=0;orthogonalLoop=1;jettySize=auto;html=1;exitX=0.5;exitY=0;exitDx=0;exitDy=0;startArrow=none;startFill=0;endArrow=none;endFill=0;" edge="1" parent="1" source="GgQkkhOfwbv0QkeX5gfG-2" target="GgQkkhOfwbv0QkeX5gfG-4">
          <mxGeometry relative="1" as="geometry" />
        </mxCell>
        <mxCell id="GgQkkhOfwbv0QkeX5gfG-6" value="Neomodel (OGM)" style="edgeLabel;html=1;align=center;verticalAlign=middle;resizable=0;points=[];fontStyle=0" vertex="1" connectable="0" parent="GgQkkhOfwbv0QkeX5gfG-5">
          <mxGeometry x="0.0333" y="4" relative="1" as="geometry">
            <mxPoint x="4" y="12" as="offset" />
          </mxGeometry>
        </mxCell>
        <mxCell id="GgQkkhOfwbv0QkeX5gfG-8" value="Apollo Client" style="edgeStyle=orthogonalEdgeStyle;rounded=0;orthogonalLoop=1;jettySize=auto;html=1;exitX=0;exitY=0.5;exitDx=0;exitDy=0;exitPerimeter=0;entryX=1;entryY=0.5;entryDx=0;entryDy=0;startArrow=none;startFill=0;endArrow=none;endFill=0;" edge="1" parent="1" source="GgQkkhOfwbv0QkeX5gfG-7" target="GgQkkhOfwbv0QkeX5gfG-2">
          <mxGeometry relative="1" as="geometry" />
        </mxCell>
        <mxCell id="GgQkkhOfwbv0QkeX5gfG-7" value="Event Catalog UI" style="verticalLabelPosition=bottom;html=1;verticalAlign=top;align=center;strokeColor=none;fillColor=#00BEF2;shape=mxgraph.azure.website_generic;pointerEvents=1;" vertex="1" parent="1">
          <mxGeometry x="545" y="311.88" width="60" height="46.25" as="geometry" />
        </mxCell>
        <mxCell id="GgQkkhOfwbv0QkeX5gfG-12" value="K8s/EKS/x Cluster" style="text;html=1;strokeColor=none;fillColor=none;align=center;verticalAlign=middle;whiteSpace=wrap;rounded=0;fontStyle=1;fontSize=18;" vertex="1" parent="1">
          <mxGeometry x="335" y="40" width="180" height="30" as="geometry" />
        </mxCell>
        <mxCell id="GgQkkhOfwbv0QkeX5gfG-16" value="" style="rounded=0;whiteSpace=wrap;html=1;fillColor=none;strokeColor=#0000FF;strokeWidth=2;" vertex="1" parent="1">
          <mxGeometry x="505" y="285" width="140" height="120" as="geometry" />
        </mxCell>
        <mxCell id="GgQkkhOfwbv0QkeX5gfG-18" value="Catalog Namespace" style="text;html=1;strokeColor=none;fillColor=none;align=center;verticalAlign=middle;whiteSpace=wrap;rounded=0;fontStyle=1;fontColor=#FF0080;" vertex="1" parent="1">
          <mxGeometry x="365" y="70" width="120" height="30" as="geometry" />
        </mxCell>
        <mxCell id="GgQkkhOfwbv0QkeX5gfG-19" value="Users" style="sketch=0;outlineConnect=0;fillColor=#FF0000;strokeColor=#82b366;dashed=0;verticalLabelPosition=bottom;verticalAlign=top;align=center;html=1;fontSize=12;fontStyle=0;aspect=fixed;pointerEvents=1;shape=mxgraph.aws4.authenticated_user;" vertex="1" parent="1">
          <mxGeometry x="549" y="501" width="50" height="50" as="geometry" />
        </mxCell>
        <mxCell id="GgQkkhOfwbv0QkeX5gfG-20" value="" style="endArrow=classic;html=1;rounded=0;entryX=0.5;entryY=1;entryDx=0;entryDy=0;" edge="1" parent="1" source="GgQkkhOfwbv0QkeX5gfG-19" target="GgQkkhOfwbv0QkeX5gfG-16">
          <mxGeometry width="50" height="50" relative="1" as="geometry">
            <mxPoint x="380" y="440" as="sourcePoint" />
            <mxPoint x="430" y="390" as="targetPoint" />
          </mxGeometry>
        </mxCell>
        <mxCell id="GgQkkhOfwbv0QkeX5gfG-22" value="" style="editableCssRules=.*;html=1;shape=image;verticalLabelPosition=bottom;labelBackgroundColor=#ffffff;verticalAlign=top;aspect=fixed;imageAspect=0;image=data:image/svg+xml,PHN2ZyB4bWxucz0iaHR0cDovL3d3dy53My5vcmcvMjAwMC9zdmciIHhtbG5zOnY9Imh0dHBzOi8vdmVjdGEuaW8vbmFubyIgd2lkdGg9IjE0LjAwMDI5OTQ1MzczNTM1MiIgaGVpZ2h0PSIxNS45OTI5MjI3ODI4OTc5NSIgdmlld0JveD0iLTAuMDAwMTQ5NjA4NDAwNTMzOTA3MTIgLTAuMDAwNDYxNzIyMDgzODU1NDIwMzUgMTQuMDAwMjk5NDUzNzM1MzUyIDE1Ljk5MjkyMjc4Mjg5Nzk1Ij4mI3hhOwk8c3R5bGUgdHlwZT0idGV4dC9jc3MiPi5zdDAgeyBmaWxsOiByZ2IoNTEsIDUxLCAyNTUpOyB9IDwvc3R5bGU+JiN4YTsJPHBhdGggY2xhc3M9InN0MCIgZD0iTTEzLjY3IDMuNzM2TDcuMzYuMDk2YS43Mi43MiAwIDAgMC0uNzIgMEwuMzMgMy43MzZhLjcyLjcyIDAgMCAwLS4zMy42MnY3LjI4YS43Mi43MiAwIDAgMCAuMzYuNjJsNi4yOCAzLjY0YS43Mi43MiAwIDAgMCAuNzIgMGw2LjMxLTMuNjRhLjcyLjcyIDAgMCAwIC4zMy0uNjJ2LTcuMjhhLjcyLjcyIDAgMCAwLS4zMy0uNjJ6bS0uODcgNy4ybC0yLjItMS4yN3YtMy4zNGwtMy4yNSAxLjg3djMuOGwyLjktMS42NyAyLjIgMS4yNy01LjQ1IDMuMS01LjQ1LTMuMTUgMi4yLTEuMjcgMi45IDEuNzJ2LTMuOEwzLjQgNi4zMjZ2My4zNGwtMi4yIDEuMjd2LTYuMjlsNS40NS0zLjE0djIuNDlsLTIuOSAxLjcyTDcgNy41ODZsMy4yNS0xLjg4LTIuOS0xLjcxdi0yLjQ5bDUuNDUgMy4xNHoiLz4mI3hhOzwvc3ZnPg==;" vertex="1" parent="1">
          <mxGeometry x="257" y="120" width="28.000000000000004" height="32" as="geometry" />
        </mxCell>
        <mxCell id="GgQkkhOfwbv0QkeX5gfG-23" value="" style="editableCssRules=.*;html=1;shape=image;verticalLabelPosition=bottom;labelBackgroundColor=#ffffff;verticalAlign=top;aspect=fixed;imageAspect=0;image=data:image/svg+xml,PHN2ZyB4bWxucz0iaHR0cDovL3d3dy53My5vcmcvMjAwMC9zdmciIHhtbG5zOnY9Imh0dHBzOi8vdmVjdGEuaW8vbmFubyIgd2lkdGg9IjE0LjAwMDI5OTQ1MzczNTM1MiIgaGVpZ2h0PSIxNS45OTI5MjI3ODI4OTc5NSIgdmlld0JveD0iLTAuMDAwMTQ5NjA4NDAwNTMzOTA3MTIgLTAuMDAwNDYxNzIyMDgzODU1NDIwMzUgMTQuMDAwMjk5NDUzNzM1MzUyIDE1Ljk5MjkyMjc4Mjg5Nzk1Ij4mI3hhOwk8c3R5bGUgdHlwZT0idGV4dC9jc3MiPi5zdDAgeyBmaWxsOiByZ2IoNTEsIDUxLCAyNTUpOyB9IDwvc3R5bGU+JiN4YTsJPHBhdGggY2xhc3M9InN0MCIgZD0iTTEzLjY3IDMuNzM2TDcuMzYuMDk2YS43Mi43MiAwIDAgMC0uNzIgMEwuMzMgMy43MzZhLjcyLjcyIDAgMCAwLS4zMy42MnY3LjI4YS43Mi43MiAwIDAgMCAuMzYuNjJsNi4yOCAzLjY0YS43Mi43MiAwIDAgMCAuNzIgMGw2LjMxLTMuNjRhLjcyLjcyIDAgMCAwIC4zMy0uNjJ2LTcuMjhhLjcyLjcyIDAgMCAwLS4zMy0uNjJ6bS0uODcgNy4ybC0yLjItMS4yN3YtMy4zNGwtMy4yNSAxLjg3djMuOGwyLjktMS42NyAyLjIgMS4yNy01LjQ1IDMuMS01LjQ1LTMuMTUgMi4yLTEuMjcgMi45IDEuNzJ2LTMuOEwzLjQgNi4zMjZ2My4zNGwtMi4yIDEuMjd2LTYuMjlsNS40NS0zLjE0djIuNDlsLTIuOSAxLjcyTDcgNy41ODZsMy4yNS0xLjg4LTIuOS0xLjcxdi0yLjQ5bDUuNDUgMy4xNHoiLz4mI3hhOzwvc3ZnPg==;" vertex="1" parent="1">
          <mxGeometry x="617" y="285" width="28.000000000000004" height="32" as="geometry" />
        </mxCell>
        <mxCell id="GgQkkhOfwbv0QkeX5gfG-26" value="" style="group" vertex="1" connectable="0" parent="1">
          <mxGeometry x="147" y="285" width="140" height="125" as="geometry" />
        </mxCell>
        <mxCell id="GgQkkhOfwbv0QkeX5gfG-10" value="PO" style="rounded=0;whiteSpace=wrap;html=1;fillColor=none;strokeColor=#0000FF;strokeWidth=2;" vertex="1" parent="GgQkkhOfwbv0QkeX5gfG-26">
          <mxGeometry width="140" height="125.00000000000001" as="geometry" />
        </mxCell>
        <mxCell id="GgQkkhOfwbv0QkeX5gfG-2" value="&lt;b&gt;Eventcatalog GraphQL&lt;br&gt;API&lt;/b&gt;" style="shape=image;html=1;verticalAlign=top;verticalLabelPosition=bottom;labelBackgroundColor=#ffffff;imageAspect=0;aspect=fixed;image=https://cdn3.iconfinder.com/data/icons/brands-pack/240/graphql-128.png" vertex="1" parent="GgQkkhOfwbv0QkeX5gfG-26">
          <mxGeometry x="33" y="15.625000000000002" width="70" height="70" as="geometry" />
        </mxCell>
        <mxCell id="GgQkkhOfwbv0QkeX5gfG-21" value="" style="editableCssRules=.*;html=1;shape=image;verticalLabelPosition=bottom;labelBackgroundColor=#ffffff;verticalAlign=top;aspect=fixed;imageAspect=0;image=data:image/svg+xml,PHN2ZyB4bWxucz0iaHR0cDovL3d3dy53My5vcmcvMjAwMC9zdmciIHhtbG5zOnY9Imh0dHBzOi8vdmVjdGEuaW8vbmFubyIgd2lkdGg9IjE0LjAwMDI5OTQ1MzczNTM1MiIgaGVpZ2h0PSIxNS45OTI5MjI3ODI4OTc5NSIgdmlld0JveD0iLTAuMDAwMTQ5NjA4NDAwNTMzOTA3MTIgLTAuMDAwNDYxNzIyMDgzODU1NDIwMzUgMTQuMDAwMjk5NDUzNzM1MzUyIDE1Ljk5MjkyMjc4Mjg5Nzk1Ij4mI3hhOwk8c3R5bGUgdHlwZT0idGV4dC9jc3MiPi5zdDAgeyBmaWxsOiByZ2IoNTEsIDUxLCAyNTUpOyB9IDwvc3R5bGU+JiN4YTsJPHBhdGggY2xhc3M9InN0MCIgZD0iTTEzLjY3IDMuNzM2TDcuMzYuMDk2YS43Mi43MiAwIDAgMC0uNzIgMEwuMzMgMy43MzZhLjcyLjcyIDAgMCAwLS4zMy42MnY3LjI4YS43Mi43MiAwIDAgMCAuMzYuNjJsNi4yOCAzLjY0YS43Mi43MiAwIDAgMCAuNzIgMGw2LjMxLTMuNjRhLjcyLjcyIDAgMCAwIC4zMy0uNjJ2LTcuMjhhLjcyLjcyIDAgMCAwLS4zMy0uNjJ6bS0uODcgNy4ybC0yLjItMS4yN3YtMy4zNGwtMy4yNSAxLjg3djMuOGwyLjktMS42NyAyLjIgMS4yNy01LjQ1IDMuMS01LjQ1LTMuMTUgMi4yLTEuMjcgMi45IDEuNzJ2LTMuOEwzLjQgNi4zMjZ2My4zNGwtMi4yIDEuMjd2LTYuMjlsNS40NS0zLjE0djIuNDlsLTIuOSAxLjcyTDcgNy41ODZsMy4yNS0xLjg4LTIuOS0xLjcxdi0yLjQ5bDUuNDUgMy4xNHoiLz4mI3hhOzwvc3ZnPg==;" vertex="1" parent="GgQkkhOfwbv0QkeX5gfG-26">
          <mxGeometry x="110" width="28.000000000000004" height="32" as="geometry" />
        </mxCell>
        <mxCell id="GgQkkhOfwbv0QkeX5gfG-4" value="" style="shape=image;verticalLabelPosition=bottom;labelBackgroundColor=default;verticalAlign=top;aspect=fixed;imageAspect=0;image=data:image/png,iVBORw0KGgoAAAANSUhEUgAAAOEAAADhCAMAAAAJbSJIAAAA21BMVEX///9lsUUAi8EAAAAODg8AicAAg70Ahb4Ah78Agr0AAAPh4eIMDA2srKx9fX03NzhaWlu7u7uioqJZrDNhrz/39/hhYWFYrDF3d3jx8fGx1aRdrjrr6+vExMR/f3+Hh4fW1tZLS0vM48Pf7vbX6dC827HR5vGr0eWDvNqVx4Kgy+LLy8uysrIiIiNvtlJTpc7C3eyhzZF5ul+Xl5dsbGyLwnb2+vQ0mciNwd1xs9Xi793r9fpJocwzMzNCQkLs9em116mcy4vS58u61ujF4Lx2uFuLwncaGhopKSqGqWYCAAATAElEQVR4nO1daUPiOheuLd0QRoQiIiqLiriCgiyC4qij8/9/0ZukC22arQXaet957ofraEPz9JycLSdFkv7hH/4h6xh3jq6enr4ePpdpz2Q7uHisVBoWRKNy/zZOezobx4VVsXY8WI3GUdoz2izGT5UdDI2d58Al1Xn343ram0FMrz8GZ/OU5hoLz5aFEwRyrHWcP88H076sm5qm64ahqqqh67qmmfJidnmW6ryF8VwL84OofUJ2PdnUdEMOA1I1zf519lkuG2SCgOK5dG2SyPlg6Nqk102bAxt/CCrqLsaxNFFdkelESSKWpjzN8LI8oooQMLySuqbNQp9cX05lqkANrZ9VQY5DVjSgp89SH7HSLtHVPY2uruZkkDIXMlgiBAb1SRrokOCHc/mMsSxVLZMcmQSBEMcSYKhO3MvnOsvsqOYic5b1nKmkYCVeQDU1pt4A2/LomqoRuRpmL0U2JLCVFKjpl3Spy/q1NwAuS1W+nFfnU1MlcdTlbJmcJ7qrsHEvDTRZnXkDJiudPTOIFGVzRrlZKrjnEAQucW6C8MW9vguMqen6vo+QZVVhUAfcY4ZWI48gMDXQuBiuWMAy9Ak0IERVB7HqpN+fgfB8kR2jyme4rEIaeh+KpQvtjH9RegyB4ZlMB1kMbLhaassQOfT+BMU3+sqwugwNc/EB2Y2fOxdHDw8PRxed56zk0Iyg1LcOHTk5/1t4o22Hoes9QG/8/nBfqTUaDQv812hUGvcP5ykS83DFYWghW4rZStcdXOu2BwT8zr8qFczxWI2K9fuZefckcMHzh79tHkGDaVNEplTrA34XOxXyk2rU/nQ4M9g2lpTs10WlIy3CXk+bDc4GMw2GaSAi7+wwAiOrcp+yst6z1bQmVc0QQZgsaRogbkzm0vKR85Cs2leqVueTGZhaDzBoo0GbwfE8WwV01UpVjMy5VZYSlZ8Mg+wrjgAd1NIsTr4z5lg5ki6pOa85lcaPHEO1+qSr1AieSVfUWVqPUpUSXQMV7UljziL2o/GUEsGpTPf6ljV2ahgE6LNIBFOj2DUNOFOiFC1rKV3TdNQAGdRjFIKorJUCbG2THgkGtXE/li5JngJCNeYM7aag9pY8wR6qMgGbf1TD5GHVfoOojEZQNj+kCzErGqCYeAzn1EL1SVVaXtUaHkmrUXsCk5lRCap9bjBERtIM3Xq2oYLYa/kGNxBhVlC5P1pK0kCmu3qQ5UdchDYaD8kSXLk6VZvAii9I7z4/P1Fm111QBQiE3pMuODU6ChLWU9nv6nRj9uGk6HC/SaO5QXTtXIojwR1UYU4Q06AWqqpu6pNFfyGbGnu/yehJb1HtaBpCrOokMcFiGZOejFZhTBEmK8QpZ2OQCnUhdeKtQiTE5Bo9ggGnqhkGc+2toH3w68h0JNcCEaxNmLNutdpdMLddXOjzZXwR7lh/kmI4CYjF3h1k7p150l5In3HtDERSatr1h9ReRTvImyLCKbdAx0TjIhmGM/+aM71tBkbJwpP3gLfnyIaVUIoRyIpM79dd+i62d/E8Xki6QiIEPygM54xYzYZqSM9rGJodtK2cAIKpu+btaX5wtVSdSJ21tDShsCYYuIBkyMGE6xKNfvyQzUYlidIivtzc7SQBbwHsLm9nnINGEnX+Hs5E6w/m88FEwOMDhg9rMkzCXYSV0dBMUyhqA4nFugzfEmDItZg/XYZEr6ca1OJv4LL112ECDEM7glBLF70ZozKzurDP3XPkoJKApQmbTL2PKhj08uFKhpN1skPEMAF/GDI0hrs1T61x+x7G2jFNAsmFjDPUvNCb7/LNubReXNrYPsFqSFBe6yFpieJPY8DbN2YjiUpNyJSuojaBwBTEP2u5iyRMaah9JJIMgal5X2chJhF4h+W0WoeExovQxfPxGjK07rdPULoOOQuvzSncbRiGfrlOGSORWts0rImOP6Rv2vsfx0Q6j29NEylEERjKqj677k1ECKKur9jWNJmaN4khPPwiWgQHoSm7C4clwkQ6a8gMIwAYpphCTGjbYm2GQIisLhyWCJPZegrbUhvCWTBcibG2LpLaAyaXfVW9dyZVBxOR1QjMaRyfaCW1j092em5JUWTvQtaupU6GezHCUZvs708XIIj09CGqPa1dSAm18J+R8lzd+zM/NEWoSk/RFLXyW5pPGNPaIMLZk+wPvokiDgEmzZE6ThpfQD36jGltEqEMGPbhR2QIAj1AUVyKFUBwkdixL1Iir3mnQUTdJewWC59ypwA2kfV1/TIhhjMCQ8N7vEJFRUQRSPFByKJawMhIC923BbRlEG2Ju9PdFyUIFBWsxY5In/fOMzAyhl9RtowBUQ/h3sXZJf0wMwGGfCaNv/C+xpAAQSTTNdDnJkSQtg+qgqiN2EbEgDaVpPM/DDlatUfg53voNKaR3MFEzrT5bVE+ihOwtt4fa2SrardxDhzF8J162zbYJ7LlCbtxD7vehAf3nh+sSiMoSatR2YFtnN2F637M5A5eMlyeAWUidUW2Er0hJjpQeX701KihDlXYo1rb+TqCYejHxDsurCa2DFlnzr2a1CKSxdFk+wUgy/POxdvRm3v8sDuVfQtbTfJ8MLVo6J3x5XdlBKGb8uzS99KaefeyLwcNl/fagiRAi6591e8IftEdrGuaLsMW1YkMf8RDB62aIEOahFaRTezuTJXWomokFXbboKipb6mEuhnWhZbs+W5Kcdtn7gSa+IifoGnkJurVmf6EQPHqnlMOPAKB1mh3/OyjO+iTHp+R9AszehRbo9sGzw1dDdtkAOhh0xGC6rxMgbQ7YCZ9WJ/qDbTF5eCyj/5qaHp/+uG4ABCVzyacuNXLjsI5ZsJ2BoIauSFpyfCYfR/Jc/x8/v7ZOUc+/Ox6wgjofCxCam0m/8YTYj1qBV2HL7dafl7d12rwtFClVru/6ozRaRoaR19kjdtq32sKkgPLpataD7jnT5AyWIGXDdYe31EoTR5qrBjiZYQURMgUojYBFuPNIqR9VuW+Aw0tUcV9+R8mQyMNEdLNKTzDLHUalDqaVfuzlObE3EM13LjsDDOmWjovrCGfCwIJHzAwT4wKE6orzYi9ca6pwap5elpvHSJvautd6XmH86aFK+AQMCW335C1gOttgBFcyTZxEAqnKiD4zqkt7ew0HseBt9OpwPYYmuxWCLDP1JIqk4ZBcPvA6InsKln3Y59HNdCr6OydOTVUUVeTd/YrhDr1tGvBRgt4fslVAe+FdcSuOHjuO0XgVr3PeZGiT1GfPBXQXQq4CbW1It23YgXfCqEy3rAQQuXCMVW+YI0gRC3tl/AN/EtR+4jSlVdZ2irge+dgOG1OJVwLwtcXDNZTlDNN1qMdFzFLH0nnvSSsfLc2iNZiUTu3jxetdldxLVVTCmYwuIeggAhpL02mChH1qnrbguHXgmXk3XvO6VjgmL+idcnUnm2pOUWmLh4Gmum5egx2E40ujSN2kFhXTnOO2f/ofszwxDE7BG2KcU5SVFyfaOh6KGnMEkGkqGA1RW7lqrxTu/vVbBEE5kbT5lLknkrrgVY5VvWMGJkVpmaMoyLAmpK75IwsvaTVxSDOgSaLHItq6UcyRDxE76h0X2+K2Zgp/2apIEYLfuVZCq1DQ87cEnQRoyu2ch4q/pr91GoWXMRh+I51yWVYgFI8LT0PMFRTzwbZ+L2mlhqo8STLiHHAt7b0LE2Gv+LCQwx/CLyF5shvlnH5QfC+KCEM51XRhilfZ9eA+iBaZvMxvJKuTU2fZV49XUR+VWDjU5pl/ZuCAohsahJ8N9lmEK1Mg1KLnwbhcrCNymfaE46MiK9LsNKebwxEe/nxW9rTjYFI57V+oggjOYxa2l97EA/i70S0vtKea0yI6mlixyU3D8FzhZWf5ux9EHoVeTLHzreFK74UfzZB/ok0q5H+N+SsCfaJtMpjVr7MaQ0sH6ldQ1aqXzgSxm6z2Yo1sHNPlKNVu8qWAE8UgGG8sfBEWuiw1kPWnIRSyOVyynHM0cujR3hWC30deaNRs76yly21lBxkeBL/E8bnF0cPV1e/H46y+aXydZthK+15bBEjpVBQ2mnPYqto5nK/0p7DP/zDP/zDP/y/oh5nN60ea9T6qLb2h83T02b5pi5yeX2/2c7BgP6uNLwRnXH9pFm6g4OUXFt8VGyUX9sHLffWw1dlhZchL0g/OYDXFSDy8KcDkZi3iO6RR6MK8MfSvuhUX+7ap+xLDtulES6aF3CPQ/TT8SGcbs4DmPSIxfHkb+DyXA7Ot8yeQf1UwQaJjHJmD56Lwo7JduETK2K/3MvnlBH8oejcuoCesHtz/PLVXEtKHl2Td0TuDL5rMWYw9N0jOOqGS/AYXFtQdjkMQWqBPy7I8EBCYTnMPMDaeG2399AiQfcekT/rxv47VObDcvG2ODwo2NPN03Ps3Rd0BaTXbhb3T27LzYOcO4obMJ/C2R+wr2ExPFTQfF+Ljl7uFtsOB2Iycus8j9fiSutbp/ZsadM4QR8I+I381sUbtcc2bXV4FS/1YzAsKvDepcAH7JaoEy7Dv4BMDLthtYk0l0yx6DyUJs6kOlTsx8vUwKFCe9r+KdMYjqrg7ooSsmnOpG7x35+g5xm+HkjkG022Gf7Lrf1QSiTbVUVLJM+kiG7JW610hiMlp+QIWnJjTwv7yzG62wtZq9pIG0Juw/kkmtHch2LM4zfyoQznvkf9swMaw8KdQvt0W1qYE9pjKkwJUcT8eN0mSJfBLtRv5YX69284D67jpDHMQTPcIo9phueLVsQr/TZ3SlhPbclS7uFMjvAsPdxCEX8zhrsfQmEIfk018Xfw2fq9ou2XGLHWLrogsN5uFX6Vr8Uyln/zJHtAuDWNYUGhDtrHVXKk8CY7DAkxVyCbnwCK9KV2AlWgwBkvsRiywqZCUGRQQjzHmy8EnxkyE/Q15gKuYPJaeyXNnAD6OmQYMTuWaHn/hAuTEzvZjHxTzQk4a8nW/zzpQbQUppqtQGXIlMlJcLpQhCXOjepBOd/AT+CNgThUyE8CCVdkw4XOkLWGjwOjWlRNwqbk02w0cX5o7ayAsDm1TZdIvkr1h2ytg7f1rMRQYRtSG+UAJ6CkApYeAqy3/F3ot8i2CZWy6QyZwwIPFkiH5Qsd3PjVapfgHykokxZ5Ha1CoS0zatT2lzks52f4XRCZLZyUk1fbzlBwxwvNEF8yyNRRkjjSeBJDthUA7sLTEWRDBNY8vMx1osj6ClV9sBWxuiUv83XBzIDp8DOEZqfwffiLjVMYpOVdzQDLqJATmiBaiPhshqKWWNoIw5YSqEFQ4Y+ToPngZgUOwDLPY2tGJPN1sQZDd03dKDlReAxBTCm8awnlHbR7RU6cH8CmGPJFaMvRdwdRhochht/5CDvzMRnmfAyRw38tCsG1720hB2PjAGe471/RXGxAhrvilt8D1LywGyejjbv8l7xIDOViAwyRt+DnaQGcCoVBNu6wqBelTZR4iPCRG2BYFfSHfhQp8TQBdTz8QWkTuSp9oIQjuQ0whFojGF94aNFnieMEi2lYadOrUghF6bukvCAiw4Oww+KhKpAzO0Dhjy8CZaVNryGzuxmGZUU0Cg7MU3AhwizE9/x2WSUhpMDY7zbBMILKebglxdMk3GDLcMTKSlBii/1uEwwlWqWBBdEx7aCSoiCYGrNvjeFINGH34VSoMGDrh89XnPpzsBC2xvBGZIcEAyox8bP8FyVQNeakTS/bYihanA2gKVKHaGIbhEP2huH2GN6KFBXwJw83lTmPZR9fdZy0aXsMoTLxCh/H+K1vkMaxli/anPJb6TIn890gwxzG0N5gYGULN0ooDhmSN92wD/VHSznOhuEWZYgWTE65oypqUyFEWiNEkebcyqGndsvLfLdmSyFKdh5MXletF0I45Q3aI9nGY7SfHtyVueNlvtuKaWy07ULMa1iJbkr2bi7hc0b23vghzvH41N7HD7igfe5WRaGwTYYgALfbDvaKPl2t3jTvnKYD4sNHHQkFMKjc8n53fHug2PvDwYwFSggkw3tUfKM9s+0xtGeLSjZ3B81ysVhujl6cBqCC0qZEWjc5mwzA6+hXs3lY+qs4/LB5ORWvQp4K1GqER+VEhu1whRIDtKXhlHDX6bfJuT1RdosUnCzD7+FNUXnnH01sqm2xmp4Qw1vYccdkCJ8zKeltlVxWvgqiogyZeVJ9iDW2wSGnuFne5VfyxGUonRwetpgMb0aHI7JROx7eeTezxdIWCOf2D779Uz0ghOT1UYmHu7www/VwfPur7Uy13dwX3J2QdveHv0aj0eFwX2w/ggRkmRNgaKN+LMptc0DJZGIM08Drf57h3n+fYf4fw5+O/0+GYr0wPwUkhvviWyQ/ACRvMRRoSfs5IDFsk5PvHwoCw112/fGnIcyw+hJlzz/7CMWlJ3eR9vyzjxXDk+92qdTO22c9Im6pZBmHHsOylxIXom78ZRqoDoB+KiteuSDifkrGUS837fDl1i0XHMZ9q0nWUT8dNpvNMrYC/wcv69AaeyRq8gAAAABJRU5ErkJggg==;" vertex="1" parent="1">
          <mxGeometry x="185" y="120" width="60" height="60" as="geometry" />
        </mxCell>
      </root>
    </mxGraphModel>
  </diagram>
</mxfile>
